<?xml version="1.0" standalone="no"?><!DOCTYPE svg PUBLIC "-//W3C//DTD SVG 1.1//EN" "http://www.w3.org/Graphics/SVG/1.1/DTD/svg11.dtd"><svg t="1516692344948" class="icon" style="" viewBox="0 0 1024 1024" version="1.1" xmlns="http://www.w3.org/2000/svg" p-id="3336" xmlns:xlink="http://www.w3.org/1999/xlink" width="30" height="30"><defs><style type="text/css"></style></defs><path d="M256 128a128 128 0 0 0-128 128v512a128 128 0 0 0 128 128h512a128 128 0 0 0 128-128V256a128 128 0 0 0-128-128H256z m0-51.2h512a179.2 179.2 0 0 1 179.2 179.2v512a179.2 179.2 0 0 1-179.2 179.2H256a179.2 179.2 0 0 1-179.2-179.2V256a179.2 179.2 0 0 1 179.2-179.2z" p-id="3337" fill="#85C45F"></path></svg>