<?xml version="1.0" standalone="no"?><!DOCTYPE svg PUBLIC "-//W3C//DTD SVG 1.1//EN" "http://www.w3.org/Graphics/SVG/1.1/DTD/svg11.dtd"><svg t="1516692360886" class="icon" style="" viewBox="0 0 1024 1024" version="1.1" xmlns="http://www.w3.org/2000/svg" p-id="3510" xmlns:xlink="http://www.w3.org/1999/xlink" width="30" height="30"><defs><style type="text/css"></style></defs><path d="M796.912941 297.562353L407.491765 692.705882l-156.611765-172.272941a30.177882 30.177882 0 0 0-44.574118 40.658824L361.411765 734.569412a60.235294 60.235294 0 0 0 85.232941 3.915294l2.409412-2.409412 390.927058-396.348235a30.117647 30.117647 0 1 0-43.068235-42.164706z" p-id="3511" fill="#85C45F"></path><path d="M813.176471 0H210.823529a210.823529 210.823529 0 0 0-210.823529 210.823529v602.352942a210.823529 210.823529 0 0 0 210.823529 210.823529h602.352942a210.823529 210.823529 0 0 0 210.823529-210.823529V210.823529a210.823529 210.823529 0 0 0-210.823529-210.823529z m150.588235 813.176471a150.588235 150.588235 0 0 1-150.588235 150.588235H210.823529a150.588235 150.588235 0 0 1-150.588235-150.588235V210.823529a150.588235 150.588235 0 0 1 150.588235-150.588235h602.352942a150.588235 150.588235 0 0 1 150.588235 150.588235z" p-id="3512" fill="#85C45F"></path></svg>